<svg xmlns="http://www.w3.org/2000/svg" width="8" height="8" viewBox="0 0 9 9" fill="none">
    <path d="M2.44171 7.80005C1.98291 7.80005 1.61587 7.66718 1.34059 7.40144C1.07186 7.1357 0.9375 6.77922 0.9375 6.33199C0.9375 5.85885 1.07842 5.49264 1.36025 5.23338C1.64864 4.96764 2.0714 4.83477 2.62851 4.83477H3.20857V3.76533H2.62851C2.0714 3.76533 1.64864 3.6357 1.36025 3.37644C1.07842 3.1107 0.9375 2.74125 0.9375 2.2681C0.9375 1.82088 1.07186 1.4644 1.34059 1.19866C1.61587 0.932919 1.98291 0.800049 2.44171 0.800049C2.80875 0.800049 3.09714 0.868104 3.30688 1.00422C3.52317 1.14033 3.67392 1.32181 3.75913 1.54866C3.85089 1.77551 3.89677 2.02505 3.89677 2.29727V3.10422H4.97823V2.29727C4.97823 2.02505 5.02083 1.77551 5.10604 1.54866C5.1978 1.32181 5.34855 1.14033 5.55829 1.00422C5.77458 0.868104 6.06625 0.800049 6.43329 0.800049C6.89209 0.800049 7.25585 0.932919 7.52458 1.19866C7.79986 1.4644 7.9375 1.82088 7.9375 2.2681C7.9375 2.74125 7.79658 3.1107 7.51475 3.37644C7.23291 3.6357 6.81016 3.76533 6.24649 3.76533H5.66643V4.83477H6.24649C6.81016 4.83477 7.23291 4.96764 7.51475 5.23338C7.79658 5.49264 7.9375 5.85885 7.9375 6.33199C7.9375 6.77922 7.79986 7.1357 7.52458 7.40144C7.25585 7.66718 6.89209 7.80005 6.43329 7.80005C6.06625 7.80005 5.77458 7.73199 5.55829 7.59588C5.34855 7.45977 5.1978 7.27829 5.10604 7.05144C5.02083 6.82459 4.97823 6.57505 4.97823 6.30283V5.49588H3.89677V6.30283C3.89677 6.57505 3.85089 6.82459 3.75913 7.05144C3.67392 7.27829 3.52317 7.45977 3.30688 7.59588C3.09714 7.73199 2.80875 7.80005 2.44171 7.80005ZM5.66643 2.27783V3.10422H6.24649C6.59387 3.10422 6.84621 3.03616 7.00351 2.90005C7.16081 2.75746 7.23947 2.54681 7.23947 2.2681C7.23947 1.98292 7.16081 1.77875 7.00351 1.6556C6.85276 1.53246 6.66269 1.47088 6.43329 1.47088C6.17767 1.47088 5.98432 1.54542 5.85323 1.69449C5.7287 1.83709 5.66643 2.03153 5.66643 2.27783ZM2.62851 3.10422H3.20857V2.27783C3.20857 2.03153 3.14302 1.83709 3.01194 1.69449C2.88741 1.54542 2.69733 1.47088 2.44171 1.47088C2.21231 1.47088 2.01896 1.53246 1.86166 1.6556C1.71091 1.77875 1.63553 1.98292 1.63553 2.2681C1.63553 2.54681 1.71419 2.75746 1.87149 2.90005C2.02879 3.03616 2.28113 3.10422 2.62851 3.10422ZM3.89677 4.83477H4.97823V3.76533H3.89677V4.83477ZM2.44171 7.12922C2.69733 7.12922 2.88741 7.05792 3.01194 6.91533C3.14302 6.76625 3.20857 6.56857 3.20857 6.32227V5.49588H2.62851C2.28113 5.49588 2.02879 5.56718 1.87149 5.70977C1.71419 5.84588 1.63553 6.05329 1.63553 6.33199C1.63553 6.61718 1.71091 6.82135 1.86166 6.94449C2.01896 7.06764 2.21231 7.12922 2.44171 7.12922ZM5.66643 6.32227C5.66643 6.56857 5.7287 6.76625 5.85323 6.91533C5.98432 7.05792 6.17767 7.12922 6.43329 7.12922C6.66269 7.12922 6.85276 7.06764 7.00351 6.94449C7.16081 6.82135 7.23947 6.61718 7.23947 6.33199C7.23947 6.05329 7.16081 5.84588 7.00351 5.70977C6.84621 5.56718 6.59387 5.49588 6.24649 5.49588H5.66643V6.32227Z" fill="#A4ACB3"/>
</svg>
