<svg xmlns="http://www.w3.org/2000/svg" width="9" height="5" viewBox="0 0 9 5" fill="none">
    <path d="M1.48219 5C1.18992 5 0.930136 4.94181 0.702821 4.82542C0.480145 4.70438 0.306179 4.53678 0.180924 4.32263C0.0603081 4.10382 0 3.85242 0 3.56844V1.42458C0 0.99162 0.134533 0.647114 0.4036 0.391061C0.677306 0.130354 1.03683 0 1.48219 0C1.92754 0 2.28475 0.128026 2.55381 0.384078C2.82288 0.64013 2.95741 0.979981 2.95741 1.40363V1.4595C2.95741 1.48277 2.95046 1.5014 2.93654 1.51536C2.92262 1.52933 2.90638 1.53631 2.88783 1.53631L2.35897 1.56425C2.31258 1.56425 2.28939 1.54097 2.28939 1.49441V1.38966C2.28939 1.14758 2.21516 0.952048 2.06671 0.803072C1.91826 0.654097 1.72342 0.579609 1.48219 0.579609C1.24095 0.579609 1.04379 0.654097 0.890704 0.803072C0.742253 0.952048 0.668028 1.14758 0.668028 1.38966V3.61034C0.668028 3.85242 0.742253 4.04795 0.890704 4.19693C1.04379 4.3459 1.24095 4.42039 1.48219 4.42039C1.72342 4.42039 1.91826 4.3459 2.06671 4.19693C2.21516 4.04795 2.28939 3.85242 2.28939 3.61034V3.51257C2.28939 3.46601 2.31258 3.44274 2.35897 3.44274L2.88783 3.47067C2.93422 3.47067 2.95741 3.49395 2.95741 3.5405V3.58939C2.95741 3.86872 2.89479 4.11546 2.76953 4.32961C2.64892 4.54376 2.47727 4.70903 2.25459 4.82542C2.03192 4.94181 1.77445 5 1.48219 5Z" fill="#A4ACB3"/>
    <path d="M5.29741 1.83659C5.29741 1.88315 5.27422 1.90642 5.22783 1.90642H4.60851C4.58995 1.90642 4.58068 1.91574 4.58068 1.93436V3.84777C4.58068 4.03864 4.61779 4.17365 4.69201 4.25279C4.77088 4.32728 4.8915 4.36452 5.05386 4.36452H5.18608C5.23247 4.36452 5.25566 4.3878 5.25566 4.43436V4.8743C5.25566 4.92086 5.23247 4.94413 5.18608 4.94413L4.91469 4.95112C4.58995 4.95112 4.34408 4.8906 4.17708 4.76955C4.01471 4.64385 3.93352 4.41341 3.93352 4.07821V1.93436C3.93352 1.91574 3.92425 1.90642 3.90569 1.90642H3.56472C3.51833 1.90642 3.49513 1.88315 3.49513 1.83659V1.4595C3.49513 1.41294 3.51833 1.38966 3.56472 1.38966H3.90569C3.92425 1.38966 3.93352 1.38035 3.93352 1.36173V0.558659C3.93352 0.512104 3.95672 0.488827 4.00311 0.488827H4.51109C4.55748 0.488827 4.58068 0.512104 4.58068 0.558659V1.36173C4.58068 1.38035 4.58995 1.38966 4.60851 1.38966H5.22783C5.27422 1.38966 5.29741 1.41294 5.29741 1.4595V1.83659Z" fill="#A4ACB3"/>
    <path d="M7.44252 1.35475C7.58169 1.35475 7.69999 1.38268 7.79741 1.43855C7.82988 1.45251 7.84148 1.48045 7.8322 1.52235L7.72782 2.05307C7.72318 2.09963 7.69535 2.11359 7.64432 2.09497C7.57473 2.07169 7.49819 2.06006 7.41468 2.06006C7.35438 2.06006 7.31031 2.06238 7.28247 2.06704C7.10155 2.08101 6.95078 2.1648 6.83016 2.31844C6.70954 2.46741 6.64924 2.64665 6.64924 2.85615V4.8743C6.64924 4.92086 6.62604 4.94413 6.57965 4.94413H6.05079C6.0044 4.94413 5.98121 4.92086 5.98121 4.8743V1.4595C5.98121 1.41294 6.0044 1.38966 6.05079 1.38966H6.57965C6.62604 1.38966 6.64924 1.41294 6.64924 1.4595V1.90642C6.64924 1.92039 6.65156 1.9297 6.65619 1.93436C6.66547 1.93436 6.67243 1.9297 6.67707 1.92039C6.84408 1.5433 7.09923 1.35475 7.44252 1.35475Z" fill="#A4ACB3"/>
    <path d="M8.40156 4.94413C8.35517 4.94413 8.33197 4.92086 8.33197 4.8743V0.125698C8.33197 0.0791431 8.35517 0.0558656 8.40156 0.0558656H8.93041C8.9768 0.0558656 9 0.0791431 9 0.125698V4.8743C9 4.92086 8.9768 4.94413 8.93041 4.94413H8.40156Z" fill="#A4ACB3"/>
</svg>
