<svg xmlns="http://www.w3.org/2000/svg" width="24" height="24" viewBox="0 0 24 24" fill="none">
    <rect opacity=".8" width="24" height="24" rx="4" fill="#687481"/>
    <path d="M10.871 13.766l-.407.407-.982.982-1.184 1.184-1.027 1.027c-.166.165-.328.335-.498.497l-.007.007c-.167.167-.473.18-.637 0a.457.457 0 0 1 0-.636l.407-.407.982-.982 1.184-1.184 1.027-1.027c.166-.165.328-.335.498-.497l.007-.007c.167-.167.473-.18.637 0 .165.18.179.46 0 .636zM17.87 6.769l-.409.408-.976.976-1.187 1.188-1.022 1.021c-.167.168-.33.338-.5.5l-.008.008c-.167.167-.474.18-.639 0a.459.459 0 0 1 0-.639l.409-.408.976-.976 1.187-1.188 1.022-1.021c.167-.168.33-.338.5-.5l.008-.008c.167-.167.474-.18.639 0 .165.18.179.461 0 .639zM10.234 10.871l-.407-.407-.982-.982L7.66 8.298 6.634 7.271c-.165-.166-.335-.328-.497-.498l-.007-.007c-.167-.167-.18-.473 0-.637a.457.457 0 0 1 .636 0l.407.407.982.982L9.34 8.702l1.027 1.027c.165.166.335.328.497.498l.007.007c.167.167.18.473 0 .637a.457.457 0 0 1-.636 0zM17.231 17.872l-.408-.409-.976-.977-1.188-1.187-1.021-1.022c-.168-.168-.338-.33-.5-.5l-.008-.008c-.167-.168-.18-.475 0-.64a.459.459 0 0 1 .639 0l.408.409.976.977 1.188 1.188 1.021 1.021c.168.168.338.33.5.501l.008.008c.167.167.18.474 0 .639a.462.462 0 0 1-.639 0z"
          fill="#fff"/>
    <path d="M6.953 13.477v4.046l-.476-.476h4.046c.25 0 .488.219.477.476a.484.484 0 0 1-.477.477H6.477A.483.483 0 0 1 6 17.523v-1.367-2.18-.499c0-.25.22-.488.477-.477.259.011.476.21.476.477zM13.477 6h4.046c.258 0 .477.218.477.477v4.046c0 .25-.22.488-.477.477a.484.484 0 0 1-.476-.477V9.155v-2.18-.498l.476.476h-4.046c-.25 0-.488-.219-.477-.476A.485.485 0 0 1 13.477 6zM10.523 6.953H6.477l.476-.476v4.046c0 .25-.219.488-.476.477A.484.484 0 0 1 6 10.523V9.155v-2.18-.498C6 6.219 6.218 6 6.477 6h4.046c.25 0 .488.22.477.477a.485.485 0 0 1-.477.476zM18 13.477v4.046a.483.483 0 0 1-.477.477h-4.046c-.25 0-.488-.22-.477-.477a.484.484 0 0 1 .477-.476h4.046l-.476.476v-1.367-2.18-.499c0-.25.219-.488.476-.477.258.011.477.21.477.477z"
          fill="#fff"/>
</svg>
