<svg xmlns="http://www.w3.org/2000/svg" width="16" height="16" viewBox="0 0 16 16" fill="none"><path fill-rule="evenodd" clip-rule="evenodd" d="M11.453 8.72l2.733-2.734c1.133-1.132 1.116-2.984-.036-4.136C12.998.698 11.146.68 10.014 1.814L7.28 4.547a4.909 4.909 0 0 0-1.228-.03c.15-.237.326-.46.532-.665l2.733-2.734c1.51-1.51 3.98-1.488 5.516.049 1.536 1.536 1.557 4.005.048 5.515l-2.734 2.733c-1.51 1.51-3.978 1.488-5.515-.048a3.97 3.97 0 0 1-1.005-1.689 1.92 1.92 0 0 1 .934-.26c.137.462.388.899.755 1.265 1.152 1.153 3.004 1.169 4.136.037zM6.445 6.445c.016-.334.088-.665.218-.977a3.892 3.892 0 0 0-1.073.122c-.09.35-.131.712-.122 1.073.312-.13.643-.202.977-.218z" fill="#007FFF"/><path fill-rule="evenodd" clip-rule="evenodd" d="M10.41 10.41c.09-.35.131-.712.122-1.073-.312.13-.643.202-.977.218a2.893 2.893 0 0 1-.218.977c.361.009.722-.032 1.073-.122zm-1.69 1.043c.406.062.819.072 1.227.03-.15.236-.326.46-.532.665l-2.733 2.734c-1.51 1.51-3.98 1.488-5.515-.048-1.537-1.537-1.558-4.006-.049-5.516l2.734-2.733c1.51-1.51 3.978-1.488 5.515.048a3.97 3.97 0 0 1 1.005 1.689 1.92 1.92 0 0 1-.934.26 2.978 2.978 0 0 0-.755-1.265C7.531 6.164 5.68 6.148 4.547 7.28l-2.733 2.734C.68 11.146.698 12.998 1.85 14.15c1.152 1.152 3.004 1.169 4.136.036l2.733-2.733z" fill="#007FFF"/></svg>
