<svg width="48" height="48" viewBox="0 0 48 48" fill="none" xmlns="http://www.w3.org/2000/svg">
<path d="M40.1545 38.4006C37.693 41.6845 32.4347 40.576 29.0635 40.7354C29.0635 40.7354 28.4667 40.7687 27.8656 40.8678C27.8656 40.8678 28.0929 40.7707 28.3828 40.6706C30.7506 39.8507 31.8695 39.686 33.3082 38.946C36.0114 37.5595 38.7018 34.5394 39.2492 31.4021C38.2202 34.4195 35.0909 37.0165 32.2415 38.0711C30.2912 38.7917 26.7637 39.4933 26.7637 39.4933C26.7653 39.4958 26.6231 39.4194 26.6211 39.4177C24.2225 38.2492 24.1533 33.0476 28.5097 31.3708C30.4197 30.6351 32.2466 31.0392 34.3114 30.5471C36.5136 30.0228 39.0642 28.37 40.1009 26.2091C41.2631 29.6608 42.6592 35.0609 40.1545 38.4006ZM40.1973 25.1396C39.9043 25.8367 39.5466 26.4648 39.1344 27.0267C37.3197 25.1619 34.7868 24 31.9871 24C26.4799 24 22 28.4862 22 33.9994C22 36.8897 23.2321 39.4963 25.1964 41.3234L25.4151 41.5174C25.0499 41.2192 24.9938 40.6822 25.2898 40.3162C25.5876 39.95 26.1244 39.8932 26.4898 40.1898C26.8562 40.487 26.912 41.0254 26.6154 41.3921C26.3198 41.7589 25.782 41.8143 25.4161 41.5183L25.565 41.6502C27.3025 43.1151 29.5424 44 31.9871 44C37.2511 44 41.5736 39.8982 41.9436 34.721C42.2176 32.1862 41.4699 28.9675 40.1973 25.1396Z" fill="#007FFF"/>
<path d="M21.9244 20.2373H19.8799L18.7776 17.5124H16.4505H14.1234L13.021 20.2373H10.9766L16.4505 8.05931L21.9244 20.2373Z" fill="#007FFF"/>
<path d="M14.957 15.6705H16.4499H17.9428L16.4499 12.1186L14.957 15.6705Z" fill="white"/>
<path d="M8.53778 21.3548L7.08224 8.48854L16.5 5.06406L25.9178 8.48854L24.4622 21.3548L16.5 25.8515L8.53778 21.3548Z" stroke="#007FFF" stroke-width="2"/>
<mask id="path-5-outside-1" maskUnits="userSpaceOnUse" x="16" y="16" width="16" height="16" fill="black">
<rect fill="white" x="16" y="16" width="16" height="16"/>
<path fill-rule="evenodd" clip-rule="evenodd" d="M24 18C23.4477 18 23 18.4477 23 19V23H19C18.4477 23 18 23.4477 18 24C18 24.5523 18.4477 25 19 25H23V29C23 29.5523 23.4477 30 24 30C24.5523 30 25 29.5523 25 29V25H29C29.5523 25 30 24.5523 30 24C30 23.4477 29.5523 23 29 23H25V19C25 18.4477 24.5523 18 24 18Z"/>
</mask>
<path fill-rule="evenodd" clip-rule="evenodd" d="M24 18C23.4477 18 23 18.4477 23 19V23H19C18.4477 23 18 23.4477 18 24C18 24.5523 18.4477 25 19 25H23V29C23 29.5523 23.4477 30 24 30C24.5523 30 25 29.5523 25 29V25H29C29.5523 25 30 24.5523 30 24C30 23.4477 29.5523 23 29 23H25V19C25 18.4477 24.5523 18 24 18Z" fill="#007FFF"/>
<path d="M23 23V25H25V23H23ZM23 25H25V23H23V25ZM25 25V23H23V25H25ZM25 23H23V25H25V23ZM25 19C25 19.5523 24.5523 20 24 20V16C22.3431 16 21 17.3431 21 19H25ZM25 23V19H21V23H25ZM19 25H23V21H19V25ZM20 24C20 24.5523 19.5523 25 19 25V21C17.3431 21 16 22.3431 16 24H20ZM19 23C19.5523 23 20 23.4477 20 24H16C16 25.6569 17.3431 27 19 27V23ZM23 23H19V27H23V23ZM25 29V25H21V29H25ZM24 28C24.5523 28 25 28.4477 25 29H21C21 30.6569 22.3431 32 24 32V28ZM23 29C23 28.4477 23.4477 28 24 28V32C25.6569 32 27 30.6569 27 29H23ZM23 25V29H27V25H23ZM29 23H25V27H29V23ZM28 24C28 23.4477 28.4477 23 29 23V27C30.6569 27 32 25.6569 32 24H28ZM29 25C28.4477 25 28 24.5523 28 24H32C32 22.3431 30.6569 21 29 21V25ZM25 25H29V21H25V25ZM23 19V23H27V19H23ZM24 20C23.4477 20 23 19.5523 23 19H27C27 17.3431 25.6569 16 24 16V20Z" fill="white" mask="url(#path-5-outside-1)"/>
</svg>
