<svg xmlns="http://www.w3.org/2000/svg" width="36" height="36" viewBox="0 0 36 36" fill="none">
    <path d="M32.678 25.921c-4.43 5.911-13.895 3.916-19.964 4.203 0 0-1.074.06-2.156.238 0 0 .41-.175.931-.355 4.262-1.476 6.276-1.772 8.866-3.104 4.866-2.496 9.708-7.932 10.694-13.58-1.853 5.432-7.485 10.107-12.614 12.005-3.51 1.297-9.86 2.56-9.86 2.56a7.884 7.884 0 0 1-.257-.136c-4.317-2.103-4.442-11.466 3.4-14.484 3.437-1.325 6.726-.597 10.442-1.483 3.965-.944 8.555-3.919 10.421-7.809 2.092 6.213 4.606 15.934.097 21.945zm.077-23.87a16.579 16.579 0 0 1-1.913 3.397C27.575 2.091 23.016 0 17.977 0 8.064 0 0 8.075 0 17.999c0 5.202 2.218 9.894 5.754 13.183l.393.35a1.536 1.536 0 1 1 2.16-.226c-.531.66-1.5.76-2.158.227l.268.237A17.875 17.875 0 0 0 17.977 36c9.475 0 17.256-7.383 17.921-16.702.494-4.563-.852-10.357-3.143-17.247z"
          fill="url(#a)"/>
    <defs>
        <linearGradient id="a" x1="18" y1="36" x2="22.519" y2=".577" gradientUnits="userSpaceOnUse">
            <stop stop-color="#68ADF4"/>
            <stop offset="1" stop-color="#3F88E2"/>
        </linearGradient>
    </defs>
</svg>
