<svg width="24" height="24" viewBox="0 0 24 24" fill="none" xmlns="http://www.w3.org/2000/svg">
    <path d="M12 24c6.627 0 12-5.373 12-12S18.627 0 12 0 0 5.373 0 12s5.373 12 12 12z" />
    <path fill-rule="evenodd" clip-rule="evenodd"
          d="M14.724 17.288c.188.133.43.166.646.084a.677.677 0 0 0 .422-.49C16.3 14.5 17.53 8.47 17.99 6.303a.456.456 0 0 0-.152-.442.467.467 0 0 0-.465-.082c-2.445.906-9.978 3.732-13.057 4.871a.482.482 0 0 0-.316.466.483.483 0 0 0 .346.446c1.38.413 3.193.987 3.193.987s.847 2.558 1.289 3.86a.511.511 0 0 0 .351.335.506.506 0 0 0 .473-.12l1.807-1.706s2.083 1.528 3.265 2.37zm-6.423-5.062l.98 3.23.217-2.045 5.942-5.358a.162.162 0 0 0 .019-.22.166.166 0 0 0-.22-.038l-6.938 4.431z"
          fill="#F8F9FB"/>
</svg>
