<svg width="158" height="48" viewBox="0 0 158 48" fill="none" xmlns="http://www.w3.org/2000/svg">
    <path fill-rule="evenodd" clip-rule="evenodd" d="M41.897 17.235l.034.033 5.6 5.6a1.6 1.6 0 0 1 .034 2.229l-.034.034-5.6 5.6-.034.034a1.6 1.6 0 0 1-2.262-2.262l.034-.035L44.137 24 39.67 19.53a1.6 1.6 0 0 1 2.228-2.296zM6.103 17.235a1.6 1.6 0 0 1 2.262 2.262l-.034.034L3.863 24l4.468 4.468a1.6 1.6 0 0 1-2.228 2.297l-.034-.034-5.6-5.6a1.6 1.6 0 0 1 0-2.263l5.6-5.6.034-.033zM17.269 28.468a1.6 1.6 0 0 1 2.228-.033l.034.034 11.2 11.2a1.6 1.6 0 0 1 .034 2.228l-.034.034-5.6 5.6a1.595 1.595 0 0 1-1.064.468h-.089a1.594 1.594 0 0 1-1.069-.429l-.04-.039-5.6-5.6-.034-.034a1.6 1.6 0 0 1 2.262-2.262l.034.034L24 44.136l3.337-3.337L17.269 30.73l-.034-.034a1.6 1.6 0 0 1 .034-2.229zm0-11.2a1.6 1.6 0 0 1 2.228-.033l.034.034 11.2 11.2.034.034a1.6 1.6 0 0 1-2.262 2.262l-.034-.034-11.2-11.2-.034-.034a1.6 1.6 0 0 1 .034-2.229zM24.022 0c.385.005.768.148 1.069.43l.04.038 5.6 5.6.034.035a1.6 1.6 0 0 1-2.262 2.262l-.034-.034-4.47-4.468L20.664 7.2 30.73 17.269l.034.034a1.6 1.6 0 0 1-2.262 2.262l-.034-.034-11.2-11.2-.034-.034a1.6 1.6 0 0 1 0-2.194l.034-.035 5.6-5.6A1.595 1.595 0 0 1 23.978 0h.044z" fill="#A4ACB3" />
    <path d="M80.048 14.442c0 2.765-.789 4.882-2.367 6.352-1.57 1.47-3.84 2.206-6.812 2.206h-4.755V6.206h5.272c2.742 0 4.871.723 6.387 2.17 1.517 1.448 2.275 3.47 2.275 6.066zm-3.7.092c0-3.607-1.592-5.41-4.778-5.41h-1.895v10.935h1.528c3.43 0 5.146-1.841 5.146-5.525zM87.09 13.66h1.148c1.126 0 1.957-.187 2.493-.562.536-.375.804-.965.804-1.77 0-.795-.276-1.362-.827-1.7-.544-.336-1.39-.505-2.539-.505h-1.08v4.538zm0 2.896V23h-3.562V6.206h4.894c2.282 0 3.97.417 5.066 1.252 1.095.827 1.643 2.087 1.643 3.779 0 .988-.272 1.869-.816 2.642-.544.766-1.313 1.367-2.309 1.804 2.527 3.775 4.174 6.214 4.94 7.317h-3.952l-4.01-6.444H87.09zM99.06 23V6.206h3.56V23h-3.56zM106.848 23V6.206h3.561v13.853h6.812V23h-10.373zM120.15 23V6.206h3.561v13.853h6.812V23H120.15zM144.4 19.52h-2.022V23h-3.469v-3.48h-7.168v-2.47l7.363-10.844h3.274v10.556h2.022v2.757zm-5.491-2.758v-2.848c0-.475.019-1.165.057-2.068.039-.904.069-1.428.092-1.574h-.092c-.283.628-.624 1.24-1.022 1.838l-3.079 4.652h4.044z" fill="#A4ACB3" />
    <path d="M145.135 27.94c-.804 0-1.505-.085-2.102-.253v-2.964c.613.153 1.172.23 1.677.23.781 0 1.34-.245 1.677-.735.337-.483.506-1.24.506-2.275V6.206h3.561V21.92c0 1.96-.448 3.454-1.344 4.48-.896 1.027-2.221 1.54-3.975 1.54zM68.007 42h-1.03v-5.415h-1.852v-.883h4.734v.883h-1.852V42zM72.801 42.086c-.74 0-1.32-.215-1.74-.646-.417-.433-.625-1.03-.625-1.787 0-.779.194-1.39.582-1.836.388-.445.92-.667 1.598-.667.629 0 1.126.19 1.49.573.365.382.548.907.548 1.576v.547h-3.175c.014.463.14.819.375 1.069.235.247.567.37.995.37.281 0 .542-.026.784-.077.244-.055.505-.144.784-.267v.822a3.11 3.11 0 0 1-.75.25 4.59 4.59 0 0 1-.866.073zm-.185-4.17c-.322 0-.58.102-.775.306-.193.204-.308.502-.345.892h2.163c-.006-.393-.101-.69-.285-.892-.184-.204-.436-.306-.758-.306zM79.004 40.643c0 .465-.169.823-.508 1.073-.339.247-.824.37-1.456.37-.635 0-1.144-.096-1.53-.288v-.875c.56.259 1.082.388 1.565.388.623 0 .934-.188.934-.564a.447.447 0 0 0-.103-.302 1.223 1.223 0 0 0-.34-.25 5.867 5.867 0 0 0-.66-.293c-.548-.212-.92-.425-1.115-.637-.192-.213-.289-.488-.289-.827 0-.408.164-.724.491-.948.33-.227.779-.34 1.344-.34a3.8 3.8 0 0 1 1.59.34l-.328.762c-.514-.212-.946-.318-1.296-.318-.534 0-.801.152-.801.456 0 .15.069.276.206.38.141.103.446.245.914.426.393.152.679.291.857.418.178.126.31.273.396.44.086.163.13.36.13.59zM81.878 41.268c.247 0 .494-.039.74-.116v.762a1.974 1.974 0 0 1-.434.12 2.834 2.834 0 0 1-.547.052c-.96 0-1.44-.505-1.44-1.516v-2.567h-.65v-.448l.698-.37.345-1.009h.624v1.06h1.357v.767h-1.357v2.55c0 .244.06.425.181.543a.68.68 0 0 0 .483.172zM87.641 41.268c.247 0 .494-.039.741-.116v.762a1.973 1.973 0 0 1-.435.12 2.832 2.832 0 0 1-.547.052c-.959 0-1.439-.505-1.439-1.516v-2.567h-.65v-.448l.698-.37.344-1.009h.625v1.06h1.357v.767h-1.357v2.55c0 .244.06.425.181.543a.68.68 0 0 0 .482.172zM93.565 39.61c0 .778-.2 1.385-.6 1.822-.398.436-.954.654-1.666.654-.445 0-.839-.1-1.18-.301a1.99 1.99 0 0 1-.789-.866c-.184-.376-.276-.813-.276-1.31 0-.772.199-1.375.595-1.809.396-.433.955-.65 1.676-.65.689 0 1.234.222 1.637.667.402.443.603 1.04.603 1.792zm-3.468 0c0 1.1.406 1.65 1.219 1.65.804 0 1.206-.55 1.206-1.65 0-1.089-.405-1.633-1.215-1.633-.425 0-.733.14-.926.422-.19.281-.284.685-.284 1.21zM99.81 36.495c-.59 0-1.056.21-1.395.629-.339.42-.508.998-.508 1.736 0 .772.162 1.357.487 1.753.327.396.8.595 1.417.595.267 0 .525-.026.775-.078.25-.055.51-.123.78-.207v.883c-.494.187-1.054.28-1.68.28-.922 0-1.63-.278-2.124-.835-.494-.56-.74-1.36-.74-2.4 0-.654.118-1.227.357-1.718a2.58 2.58 0 0 1 1.042-1.13c.454-.26.987-.391 1.599-.391.643 0 1.237.135 1.783.405l-.371.857a5.244 5.244 0 0 0-.676-.263 2.367 2.367 0 0 0-.745-.116zM106.841 39.61c0 .778-.199 1.385-.599 1.822-.399.436-.955.654-1.667.654-.445 0-.838-.1-1.18-.301a1.984 1.984 0 0 1-.788-.866c-.184-.376-.276-.813-.276-1.31 0-.772.198-1.375.594-1.809.397-.433.955-.65 1.676-.65.689 0 1.235.222 1.637.667.402.443.603 1.04.603 1.792zm-3.468 0c0 1.1.407 1.65 1.22 1.65.804 0 1.206-.55 1.206-1.65 0-1.089-.405-1.633-1.215-1.633-.425 0-.734.14-.926.422-.19.281-.285.685-.285 1.21zM109.615 42.086c-.594 0-1.058-.215-1.391-.646-.333-.43-.5-1.035-.5-1.813 0-.782.168-1.389.504-1.823.339-.436.807-.654 1.405-.654.626 0 1.102.23 1.43.693h.051a6.202 6.202 0 0 1-.073-.81v-1.736h1.017V42h-.793l-.176-.624h-.048c-.324.474-.8.71-1.426.71zm.272-.818c.416 0 .719-.116.909-.349.189-.235.287-.616.293-1.142v-.142c0-.6-.098-1.026-.293-1.28-.196-.252-.501-.378-.918-.378a.93.93 0 0 0-.823.435c-.192.287-.288.698-.288 1.232 0 .528.093.932.28 1.21.186.276.466.414.84.414zM115.586 42.086c-.741 0-1.321-.215-1.74-.646-.417-.433-.625-1.03-.625-1.787 0-.779.194-1.39.581-1.836.388-.445.921-.667 1.599-.667.629 0 1.125.19 1.49.573.365.382.547.907.547 1.576v.547h-3.175c.015.463.14.819.375 1.069.236.247.567.37.995.37.282 0 .543-.026.784-.077.244-.055.506-.144.784-.267v.822a3.116 3.116 0 0 1-.749.25 4.597 4.597 0 0 1-.866.073zm-.185-4.17c-.322 0-.58.102-.776.306-.192.204-.307.502-.344.892h2.162c-.006-.393-.1-.69-.284-.892-.184-.204-.437-.306-.758-.306zM123.71 42l-1.826-5.26h-.035c.049.782.074 1.514.074 2.197V42h-.935v-6.298h1.452l1.748 5.01h.026l1.801-5.01h1.456V42h-.991v-3.114c0-.313.007-.721.022-1.224.017-.502.031-.807.043-.913h-.035L124.619 42h-.909zM132.003 42l-.203-.663h-.034c-.23.29-.461.488-.694.594-.232.104-.531.155-.896.155-.468 0-.834-.126-1.098-.379-.262-.252-.392-.61-.392-1.072 0-.491.182-.862.547-1.112.365-.25.92-.386 1.667-.409l.823-.026v-.254c0-.304-.072-.531-.216-.68-.14-.153-.36-.229-.659-.229-.244 0-.478.036-.702.108a5.319 5.319 0 0 0-.646.254l-.327-.724c.258-.135.541-.237.848-.306.307-.071.597-.107.87-.107.606 0 1.063.132 1.37.396.31.264.465.68.465 1.245v3.21h-.723zm-1.508-.689c.368 0 .662-.102.883-.306.224-.207.336-.495.336-.866v-.413l-.612.026c-.476.017-.824.097-1.042.24-.215.142-.323.358-.323.651 0 .213.063.378.189.496.127.114.316.172.569.172zM136.556 42.086c-.603 0-1.071-.216-1.404-.65h-.061c.041.402.061.646.061.732v1.952h-1.013v-6.884h.819c.023.089.07.301.142.637h.052c.316-.482.789-.723 1.421-.723.595 0 1.057.215 1.387.646.333.43.5 1.035.5 1.813 0 .779-.169 1.386-.508 1.823-.336.436-.802.654-1.396.654zm-.246-4.11c-.402 0-.696.118-.883.354-.183.236-.275.612-.275 1.129v.15c0 .58.092 1.001.275 1.263.184.258.484.387.901.387.35 0 .62-.143.81-.43.189-.288.284-.697.284-1.228 0-.534-.095-.938-.284-1.21-.187-.276-.463-.414-.828-.414zM142.053 42.086c-.603 0-1.071-.216-1.405-.65h-.06c.04.402.06.646.06.732v1.952h-1.012v-6.884h.819c.023.089.07.301.142.637h.051c.316-.482.79-.723 1.422-.723.594 0 1.057.215 1.387.646.333.43.5 1.035.5 1.813 0 .779-.17 1.386-.509 1.823-.336.436-.801.654-1.395.654zm-.246-4.11c-.402 0-.696.118-.883.354-.184.236-.276.612-.276 1.129v.15c0 .58.092 1.001.276 1.263.184.258.484.387.9.387a.913.913 0 0 0 .81-.43c.19-.288.285-.697.285-1.228 0-.534-.095-.938-.285-1.21-.186-.276-.462-.414-.827-.414zM146.145 42h-1.012v-4.764h1.012V42zm-1.073-6.026c0-.181.049-.32.147-.418.1-.098.243-.147.426-.147.178 0 .316.05.414.147.1.098.151.237.151.418a.555.555 0 0 1-.151.409c-.098.098-.236.146-.414.146-.183 0-.326-.048-.426-.146a.561.561 0 0 1-.147-.41zM151.788 42h-1.016v-2.929c0-.368-.075-.642-.224-.823-.147-.18-.381-.271-.703-.271-.427 0-.741.126-.939.379-.198.253-.297.676-.297 1.27V42h-1.012v-4.764h.792l.143.625h.051c.144-.227.348-.403.612-.526.264-.124.557-.185.879-.185 1.143 0 1.714.581 1.714 1.744V42zM157.22 37.236v.556l-.814.15a1.457 1.457 0 0 1 .259.836c0 .491-.17.877-.509 1.159-.339.281-.805.422-1.4.422a2.26 2.26 0 0 1-.413-.035c-.219.136-.328.293-.328.474 0 .11.051.191.151.246.104.055.292.082.564.082h.832c.525 0 .925.112 1.197.336.273.224.41.547.41.969 0 .54-.223.956-.668 1.25-.445.292-1.089.439-1.93.439-.649 0-1.144-.115-1.486-.345-.342-.23-.513-.557-.513-.982 0-.293.092-.54.276-.741.187-.198.447-.336.78-.414a.78.78 0 0 1-.336-.275.714.714 0 0 1-.13-.405c0-.178.051-.33.151-.453a1.75 1.75 0 0 1 .448-.366 1.343 1.343 0 0 1-.603-.517 1.55 1.55 0 0 1-.228-.844c0-.517.162-.917.487-1.202.327-.284.792-.426 1.395-.426.135 0 .276.01.422.03.15.017.262.036.336.056h1.65zm-3.743 5.505c0 .218.098.386.293.504.198.118.475.177.831.177.552 0 .962-.08 1.232-.237.27-.158.405-.368.405-.63 0-.206-.075-.354-.224-.443-.146-.086-.421-.129-.823-.129h-.766c-.29 0-.522.068-.694.203a.68.68 0 0 0-.254.555zm.435-3.963c0 .299.076.528.228.69.155.16.376.24.664.24.586 0 .878-.313.878-.939 0-.31-.073-.548-.219-.715-.144-.17-.364-.254-.659-.254-.293 0-.516.084-.668.25-.149.167-.224.41-.224.728z" fill="#A4ACB3" />
</svg>
