<svg xmlns="http://www.w3.org/2000/svg" width="152" height="48" viewBox="0 0 152 48" fill="none">
    <path d="M77.659 15.696c0 2.911-.77 5.139-2.31 6.683-1.538 1.535-3.756 2.303-6.65 2.303H64V7.048h5.192c2.673 0 4.753.756 6.238 2.268 1.486 1.512 2.229 3.638 2.229 6.38zm-2.895.097c0-4.222-1.88-6.332-5.64-6.332h-2.378v12.797h1.953c4.043 0 6.065-2.155 6.065-6.465zM84.023 15.25h1.907c1.28 0 2.206-.25 2.78-.748.575-.498.862-1.238.862-2.219 0-.997-.31-1.713-.93-2.147-.621-.434-1.555-.651-2.804-.651h-1.815v5.765zm0 2.388v7.044h-2.745V7.048h4.744c2.167 0 3.772.426 4.813 1.279 1.042.852 1.563 2.139 1.563 3.86 0 2.195-1.088 3.759-3.263 4.691l4.745 7.804h-3.125l-4.02-7.044h-2.712zM97.307 24.682V7.048h2.745v17.634h-2.745zM105.478 24.682V7.048h2.746V22.21h7.111v2.472h-9.857zM118.23 24.682V7.048h2.745V22.21h7.111v2.472h-9.856zM142.76 20.835h-2.263v3.847h-2.631v-3.847h-7.674v-2.183L137.866 7h2.631v11.483h2.263v2.352zm-4.894-2.352v-4.427c0-1.576.039-2.867.115-3.872h-.092c-.214.531-.551 1.174-1.011 1.93l-4.17 6.369h5.158zM147.198 25c-.75 0-1.378-.1-1.884-.302v-2.424c.643.169 1.203.253 1.677.253 1.501 0 2.252-.997 2.252-2.99V7.047H152V19.44c0 1.8-.41 3.176-1.229 4.125-.812.957-2.003 1.435-3.573 1.435zM66.754 39.078h-.984v-4.91H64v-.8h4.524v.8h-1.77v4.91zM71.335 39.156c-.708 0-1.262-.195-1.663-.586-.398-.393-.597-.933-.597-1.62 0-.707.185-1.261.556-1.665.37-.403.88-.605 1.527-.605.601 0 1.076.173 1.424.52.349.346.523.822.523 1.429v.496h-3.034c.014.42.133.742.359.969.224.224.541.336.95.336.27 0 .519-.024.75-.07.233-.05.482-.13.749-.243v.746a3.077 3.077 0 0 1-.717.227 4.62 4.62 0 0 1-.827.066zm-.177-3.781c-.307 0-.554.092-.74.277-.185.185-.294.455-.33.809h2.066c-.005-.357-.096-.626-.272-.809-.175-.185-.417-.277-.724-.277zM77.262 37.848c0 .422-.162.746-.485.972-.324.224-.788.336-1.392.336-.606 0-1.093-.087-1.46-.261v-.793c.534.234 1.032.351 1.493.351.596 0 .893-.17.893-.512 0-.109-.032-.2-.098-.273a1.165 1.165 0 0 0-.325-.227 5.753 5.753 0 0 0-.63-.265c-.524-.193-.88-.386-1.066-.578-.184-.193-.276-.443-.276-.75 0-.37.156-.657.47-.86.315-.205.743-.308 1.283-.308.535 0 1.042.103 1.52.308l-.314.692c-.49-.193-.904-.29-1.239-.29-.51 0-.765.139-.765.415 0 .135.066.25.197.343.135.094.426.223.873.387.376.138.649.265.82.38.17.114.296.246.378.398.082.148.123.326.123.535zM80.008 38.414c.236 0 .472-.035.708-.105V39c-.107.044-.246.08-.416.11a2.848 2.848 0 0 1-.523.046c-.916 0-1.374-.458-1.374-1.375v-2.328h-.622v-.406l.667-.336.33-.914h.596v.96h1.297v.696h-1.297v2.313c0 .221.058.385.173.492a.67.67 0 0 0 .46.156zM85.515 38.414c.236 0 .472-.035.708-.105V39c-.107.044-.245.08-.415.11a2.849 2.849 0 0 1-.523.046c-.917 0-1.375-.458-1.375-1.375v-2.328h-.621v-.406l.666-.336.33-.914h.596v.96h1.297v.696h-1.297v2.313c0 .221.058.385.173.492a.67.67 0 0 0 .461.156zM91.175 36.91c0 .706-.19 1.257-.572 1.653-.381.395-.912.593-1.593.593-.425 0-.801-.09-1.128-.273a1.844 1.844 0 0 1-.753-.785c-.176-.341-.264-.737-.264-1.188 0-.7.19-1.247.569-1.64.378-.394.912-.59 1.6-.59.66 0 1.18.202 1.565.605.384.401.576.943.576 1.625zm-3.313 0c0 .998.388 1.496 1.164 1.496.769 0 1.153-.498 1.153-1.496 0-.987-.387-1.48-1.16-1.48-.407 0-.702.127-.886.383-.18.255-.271.62-.271 1.097zM97.144 34.086c-.566 0-1.01.19-1.334.57-.324.38-.486.905-.486 1.575 0 .7.155 1.23.465 1.59.313.359.765.538 1.355.538.255 0 .502-.023.74-.07.24-.05.487-.112.745-.187v.8a4.736 4.736 0 0 1-1.605.254c-.88 0-1.557-.252-2.03-.758-.471-.507-.707-1.233-.707-2.175 0-.594.114-1.114.342-1.559.23-.445.562-.786.996-1.023.433-.237.942-.356 1.527-.356a3.96 3.96 0 0 1 1.704.367l-.354.778a5.178 5.178 0 0 0-.646-.239 2.375 2.375 0 0 0-.712-.105zM103.861 36.91c0 .706-.191 1.257-.572 1.653-.381.395-.912.593-1.593.593-.425 0-.801-.09-1.128-.273a1.846 1.846 0 0 1-.753-.785c-.176-.341-.263-.737-.263-1.188 0-.7.189-1.247.568-1.64.378-.394.912-.59 1.601-.59.658 0 1.18.202 1.564.605.384.401.576.943.576 1.625zm-3.313 0c0 .998.388 1.496 1.165 1.496.768 0 1.152-.498 1.152-1.496 0-.987-.387-1.48-1.161-1.48-.406 0-.701.127-.885.383-.181.255-.271.62-.271 1.097zM106.512 39.156c-.568 0-1.011-.195-1.33-.586-.318-.39-.477-.938-.477-1.644 0-.709.161-1.26.482-1.653.323-.395.771-.593 1.341-.593.599 0 1.054.21 1.367.629h.049a5.331 5.331 0 0 1-.07-.735V33h.972v6.078h-.758l-.168-.566h-.046c-.31.43-.764.644-1.362.644zm.259-.742c.398 0 .688-.105.869-.316.181-.214.274-.559.28-1.035v-.13c0-.544-.094-.93-.28-1.16-.187-.229-.479-.343-.877-.343-.34 0-.602.131-.786.394-.184.26-.276.633-.276 1.117 0 .48.089.845.268 1.098.178.25.446.375.802.375zM112.217 39.156c-.708 0-1.262-.195-1.663-.586-.398-.393-.597-.933-.597-1.62 0-.707.185-1.261.556-1.665.37-.403.879-.605 1.527-.605.601 0 1.076.173 1.424.52.349.346.523.822.523 1.429v.496h-3.034c.014.42.133.742.358.969.225.224.542.336.951.336.269 0 .519-.024.749-.07.234-.05.483-.13.75-.243v.746a3.075 3.075 0 0 1-.717.227 4.612 4.612 0 0 1-.827.066zm-.177-3.781c-.307 0-.554.092-.741.277-.184.185-.293.455-.329.809h2.066c-.005-.357-.096-.626-.272-.809-.175-.185-.417-.277-.724-.277zM119.98 39.078l-1.745-4.77h-.033c.047.709.07 1.373.07 1.993v2.777h-.893v-5.71h1.387l1.671 4.542h.025l1.72-4.543h1.392v5.711h-.947v-2.824c0-.284.007-.654.02-1.11.017-.455.031-.731.042-.828h-.033l-1.807 4.762h-.869zM127.904 39.078l-.194-.601h-.033c-.219.263-.44.442-.662.539-.223.093-.508.14-.856.14-.448 0-.798-.114-1.05-.343-.25-.23-.375-.554-.375-.973 0-.446.175-.781.523-1.008.349-.227.88-.35 1.593-.371l.786-.023v-.231c0-.276-.068-.482-.206-.617-.134-.138-.344-.207-.629-.207a2.29 2.29 0 0 0-.671.097c-.214.066-.42.142-.618.23l-.313-.655c.247-.123.518-.215.811-.278.294-.065.571-.097.832-.097.579 0 1.015.12 1.309.36.296.239.444.615.444 1.128v2.91h-.691zm-1.441-.625c.351 0 .633-.092.844-.277.214-.188.321-.45.321-.785v-.375l-.584.023c-.456.016-.788.089-.997.219-.205.127-.308.324-.308.59 0 .192.06.342.181.449.121.104.302.156.543.156zM132.255 39.156c-.577 0-1.024-.196-1.342-.59h-.058c.039.365.058.586.058.664V41h-.968v-6.242h.783c.021.08.067.273.135.578h.05c.302-.438.754-.656 1.358-.656.568 0 1.01.195 1.326.586.318.39.477.938.477 1.644s-.162 1.257-.486 1.653c-.321.395-.765.593-1.333.593zm-.235-3.726c-.384 0-.665.106-.844.32-.175.214-.263.555-.263 1.023v.137c0 .526.088.908.263 1.145.176.234.463.351.86.351.335 0 .593-.13.774-.39.181-.26.272-.632.272-1.114 0-.484-.091-.85-.272-1.097-.178-.25-.441-.375-.79-.375zM137.507 39.156c-.576 0-1.024-.196-1.342-.59h-.058c.039.365.058.586.058.664V41h-.967v-6.242h.782c.022.08.067.273.136.578h.049c.302-.438.755-.656 1.358-.656.568 0 1.01.195 1.326.586.318.39.477.938.477 1.644s-.162 1.257-.485 1.653c-.322.395-.766.593-1.334.593zm-.235-3.726c-.384 0-.665.106-.844.32-.175.214-.263.555-.263 1.023v.137c0 .526.088.908.263 1.145.176.234.463.351.861.351.335 0 .592-.13.774-.39.181-.26.271-.632.271-1.114 0-.484-.09-.85-.271-1.097-.179-.25-.442-.375-.791-.375zM141.417 39.078h-.967v-4.32h.967v4.32zm-1.025-5.465c0-.164.047-.29.14-.379.096-.088.232-.132.408-.132.17 0 .302.044.395.132.096.089.144.215.144.38 0 .156-.048.28-.144.37-.093.089-.225.133-.395.133-.176 0-.312-.044-.408-.133a.496.496 0 0 1-.14-.37zM146.809 39.078h-.971v-2.656c0-.333-.071-.582-.214-.746-.14-.164-.364-.246-.671-.246-.409 0-.708.114-.897.343-.19.23-.284.614-.284 1.153v2.152h-.968v-4.32h.758l.136.566h.049c.137-.206.332-.364.585-.476.252-.112.532-.168.839-.168 1.092 0 1.638.527 1.638 1.582v2.816zM152 34.758v.504l-.778.136a1.255 1.255 0 0 1 .247.758c0 .446-.162.796-.486 1.051-.324.255-.769.383-1.337.383-.146 0-.278-.01-.396-.031-.208.122-.312.265-.312.43 0 .098.048.172.144.222.098.05.278.074.539.074h.794c.502 0 .884.102 1.145.305.26.203.391.496.391.879 0 .49-.213.867-.638 1.133-.426.265-1.04.398-1.844.398-.621 0-1.094-.104-1.421-.313a.997.997 0 0 1-.489-.89.93.93 0 0 1 .263-.672c.178-.18.427-.305.745-.375a.737.737 0 0 1-.321-.25.631.631 0 0 1 .021-.777c.096-.112.238-.223.428-.332a1.274 1.274 0 0 1-.577-.47 1.354 1.354 0 0 1-.218-.765c0-.468.155-.832.465-1.09.313-.257.758-.386 1.334-.386.129 0 .263.009.403.027.143.016.25.033.322.05H152zm-3.577 4.992c0 .198.093.35.28.457.189.107.454.16.794.16.527 0 .92-.071 1.178-.215.258-.143.387-.333.387-.57 0-.188-.072-.322-.215-.402-.139-.078-.402-.117-.786-.117h-.732c-.278 0-.498.06-.663.183a.604.604 0 0 0-.243.504zm.416-3.594c0 .271.072.48.218.625.148.146.359.219.634.219.56 0 .84-.284.84-.852 0-.28-.07-.497-.21-.648-.138-.154-.348-.23-.63-.23-.28 0-.493.075-.638.226-.143.151-.214.371-.214.66z"
          fill="#A4ACB3"/>
    <path fill-rule="evenodd" clip-rule="evenodd"
          d="M41.897 17.235l.034.033 5.6 5.6a1.6 1.6 0 0 1 .034 2.229l-.034.034-5.6 5.6-.034.034a1.6 1.6 0 0 1-2.262-2.262l.034-.035L44.137 24 39.67 19.53a1.6 1.6 0 0 1 2.228-2.296zM6.103 17.235a1.6 1.6 0 0 1 2.262 2.262l-.034.034L3.863 24l4.468 4.468a1.6 1.6 0 0 1-2.228 2.297l-.034-.034-5.6-5.6a1.6 1.6 0 0 1 0-2.263l5.6-5.6.034-.033zM17.269 28.468a1.6 1.6 0 0 1 2.228-.033l.034.034 11.2 11.2a1.6 1.6 0 0 1 .034 2.228l-.034.034-5.6 5.6a1.595 1.595 0 0 1-1.064.468h-.089a1.595 1.595 0 0 1-1.069-.429l-.04-.039-5.6-5.6-.034-.034a1.6 1.6 0 0 1 2.262-2.262l.034.034L24 44.136l3.337-3.337L17.27 30.73l-.034-.034a1.6 1.6 0 0 1 .034-2.229zm0-11.2a1.6 1.6 0 0 1 2.228-.033l.034.034 11.2 11.2.034.034a1.6 1.6 0 0 1-2.262 2.262l-.034-.034-11.2-11.2-.034-.034a1.6 1.6 0 0 1 .034-2.229zM24.022 0c.385.005.768.148 1.069.43l.04.038 5.6 5.6.034.035a1.6 1.6 0 0 1-2.262 2.262l-.034-.034L24 3.863 20.663 7.2 30.73 17.269l.034.034a1.6 1.6 0 0 1-2.262 2.262l-.034-.034-11.2-11.2-.034-.034a1.6 1.6 0 0 1 0-2.194l.034-.035 5.6-5.6A1.595 1.595 0 0 1 23.978 0h.044z"
          fill="#A4ACB3"/>
</svg>
