<svg width="42" height="24" viewBox="0 0 42 12" fill="none" xmlns="http://www.w3.org/2000/svg">
    <path d="M7.924 6.63V9.33c0 .693.336 1.03 1.029 1.03h.301c.693 0 1.029-.337 1.029-1.03V8.008h1.582v1.267c0 1.736-.875 2.632-2.632 2.632h-.336c-1.736 0-2.632-.875-2.632-2.422V2.85C6.265.91 7.14.014 8.897.014h.336c1.736 0 2.632.875 2.632 2.632v3.97H7.931v.013h-.007zm0-1.59h2.331V2.576c0-.693-.336-1.029-1.029-1.029h-.259c-.693 0-1.029.336-1.029 1.03V5.04h-.014zM12.943.154h1.638v.749a2.74 2.74 0 0 1 1.995-.875c1.4 0 2.086.93 2.086 2.296v7.273c0 1.379-.693 2.296-2.086 2.296a2.768 2.768 0 0 1-1.995-.84v3.752h-1.638V.154zm1.638 9.59c.448.392.973.595 1.512.595.595 0 .952-.28.952-.952v-6.86c0-.672-.336-.952-.952-.952-.539 0-1.064.224-1.512.595v7.574zM19.656 7.728c0-1.435.469-2.016 1.715-2.443l2.198-.749v-1.96c0-.693-.336-1.064-1.029-1.064h-.259c-.693 0-1.029.371-1.029 1.064v1.638H19.67V2.632C19.67.896 20.545 0 22.302 0h.315c1.736 0 2.632.875 2.632 2.632v9.121h-1.638v-.728c-.448.427-1.064.861-1.995.861-1.309 0-1.918-.749-1.918-2.051V7.728h-.042zm3.92 2.072V5.978l-1.491.56c-.595.245-.805.539-.805 1.211V9.52c0 .56.28.84.805.84.497-.021.945-.189 1.491-.56zM31.815 11.76h-1.638V2.415c0-.581-.28-.84-.784-.84-.448 0-.931.168-1.512.58v9.605h-1.638V.154h1.638v.749C28.35.455 28.98.028 29.876.028c.84 0 1.4.336 1.694.952.58-.504 1.267-.952 2.219-.952 1.267 0 1.918.784 1.918 2.05v9.696h-1.638v-9.36c0-.58-.28-.84-.784-.84-.448 0-.931.169-1.512.582v9.604h.042z" fill="#1B191B" />
    <path d="M4.193 1.218V3.36L1.449 5.97l2.744 2.577v2.184L0 6.776V5.208l4.193-3.99zM42 5.208v1.568l-4.193 3.955V8.547l2.744-2.576-2.744-2.625V1.218L42 5.208z" fill="#00B5D1" />
</svg>
