<svg xmlns="http://www.w3.org/2000/svg" width="48" height="48" viewBox="0 0 48 48" fill="none">
    <path d="M24 43.926c-.559 0-1.08-.147-1.565-.404l-4.957-2.897c-.745-.404-.372-.55-.149-.624 1.006-.33 1.193-.403 2.236-.99.112-.074.261-.037.373.036l3.801 2.238c.15.073.335.073.447 0l14.87-8.473c.149-.073.224-.22.224-.404V15.5c0-.183-.075-.33-.224-.403l-14.87-8.437c-.149-.073-.335-.073-.447 0L8.87 15.096c-.149.073-.223.256-.223.403v16.91c0 .146.074.33.224.403l4.062 2.31c2.198 1.101 3.577-.183 3.577-1.466v-16.69c0-.22.187-.44.447-.44h1.901a.45.45 0 0 1 .447.44v16.69c0 2.897-1.602 4.584-4.397 4.584-.857 0-1.528 0-3.429-.917l-3.913-2.2A3.087 3.087 0 0 1 6 32.445v-16.91c0-1.1.596-2.127 1.565-2.677l14.87-8.473c.931-.513 2.199-.513 3.13 0l14.87 8.473A3.087 3.087 0 0 1 42 15.536v16.91c0 1.1-.596 2.127-1.565 2.677l-14.87 8.473c-.484.22-1.043.33-1.565.33zm4.584-11.628c-6.522 0-7.863-2.934-7.863-5.428 0-.22.186-.44.447-.44h1.938c.223 0 .41.146.41.366.298 1.944 1.155 2.898 5.105 2.898 3.13 0 4.472-.697 4.472-2.347 0-.954-.373-1.651-5.255-2.128-4.062-.403-6.596-1.284-6.596-4.475 0-2.97 2.534-4.731 6.783-4.731 4.77 0 7.118 1.613 7.416 5.135 0 .11-.037.22-.112.33-.074.073-.186.147-.298.147h-1.938a.435.435 0 0 1-.41-.33c-.447-2.018-1.602-2.678-4.658-2.678-3.429 0-3.839 1.174-3.839 2.054 0 1.064.485 1.394 5.106 1.98 4.584.587 6.745 1.431 6.745 4.585-.037 3.228-2.72 5.062-7.453 5.062z"
          fill="#007FFF"/>
</svg>
