<svg xmlns="http://www.w3.org/2000/svg" width="19" height="18" viewBox="0 0 19 18" fill="none">
    <path d="M5.4496 8.33396L2.38672 9.46245C2.42586 9.95974 2.51402 10.4506 2.62986 10.9321L5.54189 9.85932C5.44737 9.36138 5.41363 8.84799 5.45278 8.33364L5.4496 8.33396ZM18.9996 4.90472C18.7857 4.45861 18.5381 4.0273 18.2517 3.62109L15.1863 4.74958C15.5427 5.11877 15.8419 5.53334 16.0869 5.97688L18.9996 4.90472Z"/>
    <path d="M12.3695 3.64641C13.0072 3.94736 13.5597 4.35775 14.0257 4.83959L17.0914 3.7111C16.2163 2.4672 15.0368 1.47452 13.6683 0.830339C9.2859 -1.23609 4.05763 0.688071 2.0138 5.11962C1.37468 6.50281 1.10183 8.03021 1.22198 9.55214L4.28804 8.42397C4.33896 7.75222 4.50127 7.07854 4.7982 6.43351C6.12628 3.55371 9.52237 2.30387 12.3695 3.64673"/>
    <path d="M2.91298 10.8639L0 11.9364C0.267333 13.0105 0.731984 14.0312 1.36977 14.9395L4.42882 13.8129C3.64935 13.0007 3.12235 11.9752 2.91298 10.8633" />
    <path d="M15.191 9.57498C15.141 10.2648 14.9667 10.9396 14.6767 11.5661C13.3487 14.4459 9.95289 15.6957 7.10547 14.3525C6.48538 14.0607 5.92298 13.6572 5.44578 13.1616L2.38672 14.2882C3.23391 15.4933 4.38949 16.5007 5.80731 17.1699C10.1897 19.2363 15.4173 17.3115 17.4611 12.88C18.1004 11.4976 18.3723 9.9705 18.2501 8.44939L15.1917 9.57531L15.191 9.57498Z" />
    <path d="M16.0404 4.8283L13.1274 5.90078C13.6685 6.88121 13.924 8.01002 13.8403 9.14526L16.8994 8.01967C16.8119 6.90921 16.5191 5.82546 16.0401 4.8283" />
</svg>
