<svg width="16" height="12" viewBox="0 0 16 12" fill="none" xmlns="http://www.w3.org/2000/svg">
<path fill-rule="evenodd" clip-rule="evenodd" d="M12.256 11.8675C12.4706 12.0043 12.7473 12.0385 12.994 11.9545C13.2406 11.8699 13.422 11.6803 13.4766 11.4505C14.0559 9.0001 15.4612 2.79789 15.9886 0.568889C16.0286 0.400889 15.9619 0.226289 15.8152 0.114089C15.6686 0.00188897 15.4652 -0.0305111 15.2839 0.0300889C12.4886 0.96129 3.88018 3.86829 0.36159 5.04009C0.138262 5.11449 -0.00706794 5.30769 0.00026523 5.51949C0.00826505 5.73189 0.166928 5.91609 0.39559 5.9779C1.97355 6.4027 4.04484 6.9937 4.04484 6.9937C4.04484 6.9937 5.01282 9.6247 5.51747 10.9627C5.5808 11.1307 5.7268 11.2627 5.91946 11.3083C6.11146 11.3533 6.31679 11.3059 6.46012 11.1841C7.27077 10.4953 8.52407 9.4303 8.52407 9.4303C8.52407 9.4303 10.9054 11.0017 12.256 11.8675ZM4.91615 6.6613L6.03546 9.9841L6.28412 7.8799C6.28412 7.8799 10.6087 4.36929 13.074 2.36829C13.146 2.30949 13.156 2.21109 13.096 2.14209C13.0366 2.07309 12.9273 2.05689 12.8453 2.10369C9.98804 3.74589 4.91615 6.6613 4.91615 6.6613Z" fill="#65B2FF"/>
</svg>
