<svg width="16" height="16" viewBox="0 0 16 16" fill="none" xmlns="http://www.w3.org/2000/svg">
    <path d="M0.11579 14.4316L7.03086 0.599067C7.43017 -0.199689 8.56983 -0.199689 8.96914 0.599066L15.8842 14.4316C16.2444 15.1522 15.7205 16 14.9151 16H1.08493C0.279452 16 -0.244431 15.1522 0.11579 14.4316Z"
          fill="#F5A623"/>
    <path d="M8.70857 10.2492H7.31429L7.02286 6H9L8.70857 10.2492ZM7 12.0866C7 11.7858 7.08571 11.5583 7.25714 11.4043C7.42857 11.2503 7.6781 11.1733 8.00571 11.1733C8.3219 11.1733 8.56571 11.2521 8.73714 11.4097C8.91238 11.5673 9 11.7929 9 12.0866C9 12.3696 8.91238 12.5935 8.73714 12.7582C8.5619 12.9194 8.3181 13 8.00571 13C7.68571 13 7.4381 12.9212 7.26286 12.7636C7.08762 12.6024 7 12.3768 7 12.0866Z"
          fill="white"/>
</svg>
