<svg width="24" height="24" viewBox="0 0 24 24" fill="none" xmlns="http://www.w3.org/2000/svg">
    <path d="M12 24c6.627 0 12-5.373 12-12S18.627 0 12 0 0 5.373 0 12s5.373 12 12 12z"  />
    <path fill-rule="evenodd" d="M19.91 8.132a2.1 2.1 0 0 0-1.478-1.479C17.135 6.3 11.917 6.3 11.917 6.3s-5.218.01-6.514.364a2.1 2.1 0 0 0-1.479 1.479c-.392 2.303-.544 5.813.01 8.025a2.1 2.1 0 0 0 1.48 1.479C6.71 18 11.927 18 11.927 18s5.218 0 6.514-.353a2.101 2.101 0 0 0 1.479-1.48c.413-2.306.541-5.814-.01-8.035z" fill="#F8F9FB" />
    <path d="M10.256 14.656l4.329-2.507-4.329-2.507v5.014z"  />
</svg>
