<svg width="64" height="63" viewBox="0 0 64 63" fill="none" xmlns="http://www.w3.org/2000/svg"><g filter="url(#a)"><g opacity=".6" fill="#007FFF" stroke="#fff" stroke-width=".5"><path opacity=".6" d="M23.674 23.903l8.654 4.998 8.657-5 .002-10-8.655-4.998-8.657 5-.002 10zM34.673 41.903l8.655 4.998 8.657-5 .001-10-8.654-4.998-8.657 5-.002 10zM12.674 42.903l8.654 4.998 8.657-5 .001-10-8.654-4.998-8.657 5-.002 10z"/><path opacity=".6" d="M34.673 29.903l8.655 4.998 8.657-5 .002-10-8.655-4.998-8.657 5-.002 10zM12.674 29.903l8.654 4.998 8.657-5 .001-10-8.654-4.998-8.657 5-.002 10zM23.674 48.903l8.654 4.998 8.657-5 .001-10-8.654-4.998-8.657 5-.002 10z"/><path opacity=".6" d="M23.674 35.903l8.654 4.998 8.657-5 .002-10-8.655-4.998-8.657 5-.002 10z"/></g><path opacity=".6" d="M12.67 42.929l19.651 10.984.272-23.26-20.202-10.756.28 23.032z" fill="#fff"/><path opacity=".3" d="M32 54.402l19.536-11.78.38-22.379-19.644 10.9L32 54.403z" fill="#fff"/></g><defs><filter id="a" x="4.391" y=".614" width="55.846" height="61.788" filterUnits="userSpaceOnUse" color-interpolation-filters="sRGB"><feFlood flood-opacity="0" result="BackgroundImageFix"/><feBlend mode="normal" in="SourceGraphic" in2="BackgroundImageFix" result="shape"/><feGaussianBlur stdDeviation="4" result="effect1_foregroundBlur"/></filter></defs></svg>