<svg width="115" height="117" viewBox="0 0 115 117" fill="none" xmlns="http://www.w3.org/2000/svg"><g filter="url(#a)"><g opacity=".6" fill="#007FFF" stroke="#fff" stroke-width="1.169"><path opacity=".7" d="M73.863 55.44l-14.04 5.388-2.352 14.853 11.687 9.463 14.039-5.389 2.352-14.852-11.686-9.464zM42.863 50.44l-14.04 5.388-2.352 14.853 11.687 9.463 14.039-5.389 2.352-14.852-11.686-9.464z"/><path opacity=".6" d="M62.863 24.44l-14.04 5.388-2.352 14.853 11.687 9.463 14.039-5.389 2.43-14.355-11.764-9.96z"/><path opacity=".7" d="M56.863 62.44l-14.04 5.388-2.352 14.853 11.687 9.463 14.039-5.389 2.352-14.852-11.686-9.464zM76.863 37.44l-14.04 5.388-2.352 14.853 11.687 9.463 14.039-5.389 2.352-14.852-11.686-9.464zM44.863 32.44l-14.04 5.388-2.352 14.853 11.687 9.463 14.039-5.389 2.352-14.852-11.686-9.464z"/><path opacity=".7" d="M58.863 44.44l-14.04 5.388-2.352 14.853 11.687 9.463 14.039-5.389 2.352-14.852-11.686-9.464z"/></g><path opacity=".6" d="M61.723 25.294L30.843 37.65l26.442 21.927 31.257-12.592-26.819-21.69z" fill="#fff"/><path opacity=".4" d="M32 38.402l-5.268 32.5 25.5 21.5 5.5-33-25.732-21z" fill="#fff"/></g><defs><filter id="a" x="23.841" y="21.769" width="67.338" height="73.042" filterUnits="userSpaceOnUse" color-interpolation-filters="sRGB"><feFlood flood-opacity="0" result="BackgroundImageFix"/><feBlend mode="normal" in="SourceGraphic" in2="BackgroundImageFix" result="shape"/><feGaussianBlur stdDeviation="1" result="effect1_foregroundBlur"/></filter></defs></svg>