<svg width="24" height="24" viewBox="0 0 24 24" fill="none" xmlns="http://www.w3.org/2000/svg">
    <path fill-rule="evenodd" clip-rule="evenodd"
          d="M11.999 0C5.373 0 0 5.509 0 12.304 0 17.74 3.438 22.351 8.207 23.98c.6.113.819-.267.819-.594 0-.292-.01-1.066-.017-2.092-3.337.743-4.042-1.65-4.042-1.65-.545-1.421-1.332-1.8-1.332-1.8-1.09-.762.082-.747.082-.747 1.205.087 1.838 1.268 1.838 1.268 1.07 1.88 2.81 1.337 3.493 1.022.109-.795.419-1.337.762-1.644-2.665-.312-5.467-1.367-5.467-6.081 0-1.344.468-2.442 1.236-3.302-.124-.311-.536-1.562.118-3.256 0 0 1.007-.33 3.3 1.26A11.258 11.258 0 0 1 12 5.95a11.27 11.27 0 0 1 3.005.414c2.29-1.592 3.296-1.261 3.296-1.261.655 1.694.243 2.945.12 3.256.77.86 1.233 1.958 1.233 3.302 0 4.726-2.806 5.766-5.478 6.07.43.38.814 1.131.814 2.28 0 1.644-.015 2.97-.015 3.374 0 .33.217.712.825.592 4.765-1.63 8.2-6.238 8.2-11.673C24 5.51 18.627 0 11.999 0z"/>
</svg>
