<svg width="22" height="22" viewBox="0 0 22 22" fill="none" xmlns="http://www.w3.org/2000/svg">
<path d="M11.008 0C10.6476 0.0258986 10.3744 0.341478 10.3932 0.709813V0.890144C10.4101 1.09445 10.4401 1.29685 10.4795 1.49732C10.5371 1.88122 10.5579 2.26994 10.5415 2.65796C10.5058 2.78554 10.4345 2.90064 10.3369 2.98889L10.3228 3.25938C9.94265 3.292 9.56533 3.35147 9.19364 3.4378C7.6299 3.79846 6.20602 4.62721 5.10691 5.82143L4.88164 5.65836C4.75774 5.69673 4.62446 5.68234 4.51089 5.61999C4.20623 5.38955 3.92425 5.12934 3.66895 4.84303C3.54071 4.68644 3.40376 4.53752 3.25877 4.397L3.11986 4.28382C2.99596 4.18214 2.84391 4.12363 2.68528 4.11596C2.59062 4.11083 2.49611 4.12866 2.40949 4.168C2.32287 4.20735 2.24658 4.26709 2.18688 4.34233C1.97475 4.6464 2.04421 5.06749 2.34081 5.28523L2.47034 5.39074C2.63707 5.50411 2.81007 5.60755 2.98845 5.70057C3.32072 5.88953 3.63422 6.11111 3.92519 6.37201C3.99962 6.48048 4.04287 6.60807 4.05003 6.74035L4.25464 6.93219C3.1499 8.62615 2.69654 10.6779 2.98001 12.6932L2.71719 12.7699C2.64868 12.8812 2.55763 12.9761 2.44875 13.0462C2.08208 13.1462 1.70674 13.2095 1.32804 13.2351C1.12707 13.2393 0.9265 13.2553 0.727331 13.2831L0.561196 13.3215H0.542424C0.427132 13.3378 0.318543 13.3865 0.228746 13.4622C0.138949 13.5379 0.0714671 13.6376 0.0338138 13.7501C-0.00383953 13.8627 -0.0101872 13.9837 0.0154779 14.0997C0.0411429 14.2158 0.0978135 14.3222 0.17918 14.4073C0.261307 14.4919 0.364844 14.5515 0.47822 14.5795C0.591596 14.6074 0.710344 14.6026 0.821193 14.5656H0.833395L1.00235 14.5464C1.19288 14.4888 1.38061 14.4178 1.56364 14.3373C1.91562 14.1934 2.28074 14.0831 2.65431 14.0111C2.78384 14.0188 2.90773 14.0639 3.01286 14.1406L3.29444 14.0927C3.90454 16.0274 5.18669 17.6667 6.89872 18.6997L6.78421 18.9443C6.83677 19.0566 6.85648 19.1813 6.84053 19.305C6.68566 19.6714 6.49606 20.0225 6.27454 20.3524C6.15303 20.5161 6.04083 20.6868 5.93852 20.8637L5.85874 21.0364C5.80085 21.139 5.77184 21.2559 5.77491 21.3744C5.77798 21.4928 5.81301 21.608 5.87613 21.7073C5.93925 21.8067 6.02801 21.8863 6.13261 21.9373C6.2372 21.9883 6.35356 22.0088 6.46884 21.9965C6.58438 21.9832 6.69406 21.9375 6.78569 21.8643C6.87732 21.7912 6.94732 21.6935 6.98789 21.5822L7.0658 21.4191C7.13713 21.2272 7.1972 21.0316 7.24601 20.834C7.41215 20.4148 7.50225 19.9649 7.7294 19.6868C7.80364 19.6154 7.89719 19.5686 7.99784 19.5525L8.13863 19.2906C9.99449 20.0196 12.048 20.0247 13.9074 19.305L14.0322 19.5496C14.1598 19.5688 14.2744 19.6407 14.3513 19.7462C14.5278 20.0896 14.6705 20.4493 14.7793 20.8205C14.829 21.0193 14.8898 21.215 14.9614 21.4066L15.0393 21.5697C15.0803 21.6806 15.1505 21.7778 15.2422 21.8505C15.3338 21.9232 15.4434 21.9685 15.5587 21.9815C15.674 21.9945 15.7906 21.9747 15.8956 21.9242C16.0006 21.8737 16.0898 21.7945 16.1535 21.6953C16.2165 21.5956 16.2513 21.48 16.2539 21.3613C16.2566 21.2426 16.227 21.1255 16.1685 21.0229L16.0868 20.8503C15.9845 20.674 15.8723 20.504 15.7508 20.3409C15.5349 20.0225 15.3491 19.6829 15.1876 19.3271C15.1726 19.262 15.1704 19.1945 15.1814 19.1286C15.1924 19.0627 15.2162 18.9997 15.2515 18.9434C15.2114 18.8597 15.1766 18.7735 15.1473 18.6853C16.8555 17.6446 18.1321 15.9996 18.7356 14.062L19.0022 14.1099C19.0979 14.0207 19.2237 13.9737 19.3523 13.9776C19.7249 14.0505 20.09 14.1694 20.4429 14.3037C20.626 14.39 20.8137 14.4629 21.0042 14.5243C21.0493 14.5368 21.115 14.5473 21.1657 14.5598H21.1779C21.2887 14.5964 21.4072 14.6008 21.5203 14.5726C21.6334 14.5443 21.7366 14.4846 21.8184 14.4C21.9003 14.3154 21.9575 14.2092 21.9838 14.0933C22.01 13.9774 22.0043 13.8563 21.9672 13.7435C21.9293 13.6308 21.8615 13.5312 21.7713 13.4556C21.6811 13.3801 21.5722 13.3316 21.4566 13.3157L21.2745 13.2716C21.0754 13.2438 20.8748 13.2278 20.6738 13.2236C20.2946 13.1987 19.9192 13.1354 19.5531 13.0347C19.4405 12.9704 19.3466 12.8745 19.2828 12.7584L19.0294 12.6817C19.2996 10.6673 18.8367 8.62171 17.7285 6.93315L17.95 6.72404C17.9406 6.59263 17.9828 6.46218 18.0664 6.36146C18.3545 6.10823 18.6671 5.88473 18.9956 5.69385C19.174 5.6008 19.3469 5.49736 19.5137 5.38403L19.6507 5.27084C19.7516 5.20684 19.8327 5.11496 19.8847 5.00582C19.9366 4.89668 19.9572 4.77474 19.9442 4.65412C19.9311 4.5335 19.8849 4.41912 19.8109 4.32422C19.7369 4.22932 19.6381 4.15778 19.5259 4.11787C19.4138 4.07801 19.293 4.07136 19.1774 4.09869C19.0618 4.12602 18.9562 4.18621 18.8726 4.27231L18.7337 4.38549C18.5888 4.52604 18.4518 4.67496 18.3235 4.83152C18.0757 5.12121 17.8017 5.38499 17.5041 5.62095C17.3841 5.67091 17.2527 5.68553 17.1249 5.66316L16.8875 5.83581C15.5171 4.36823 13.6708 3.45698 11.6922 3.27473C11.6922 3.17881 11.68 3.03493 11.6781 2.98985C11.5721 2.91503 11.4979 2.80088 11.4735 2.67139C11.4605 2.28402 11.4844 1.89627 11.5449 1.51363C11.5852 1.31219 11.6134 1.11076 11.6312 0.906451V0.714609C11.65 0.346274 11.3778 0.0306947 11.0164 0.00479614L11.008 0ZM10.2252 4.95526L10.0375 8.30577H10.0234C10.014 8.51296 9.89478 8.68945 9.71175 8.78921C9.52872 8.88897 9.3119 8.85923 9.14858 8.73741L6.45945 6.79022C7.31537 5.93109 8.38915 5.33342 9.5597 5.06461C9.77933 5.01665 10.0008 4.9802 10.2233 4.95526H10.2252ZM11.7908 4.95526C13.2034 5.13463 14.5184 5.78306 15.5359 6.80078L12.8721 8.7355C12.7078 8.86978 12.4825 8.89664 12.292 8.80456C12.1015 8.71247 11.9794 8.5168 11.9766 8.30193L11.7908 4.95526ZM5.48329 8.05062L7.94246 10.2932V10.3076C8.09546 10.4438 8.1621 10.6558 8.11704 10.8582C8.07199 11.0606 7.91994 11.2208 7.72564 11.2755V11.2851L4.57002 12.2126C4.41387 10.7597 4.73552 9.29504 5.48423 8.04966L5.48329 8.05062ZM16.5148 8.05062C17.262 9.2928 17.5924 10.7498 17.4553 12.2011L14.295 11.2707V11.2582C14.0979 11.2035 13.9477 11.0433 13.9036 10.841C13.8595 10.6386 13.9252 10.4285 14.0782 10.2904L16.5186 8.0583L16.5148 8.05062ZM10.5039 10.4678H11.5101L12.1249 11.2659L11.9015 12.2635L10.9977 12.7076L10.0919 12.2635L9.87882 11.2659L10.5039 10.4678ZM13.7271 13.1901C13.7694 13.1853 13.821 13.1853 13.8539 13.1901L17.108 13.7512C16.6387 15.1324 15.7123 16.3123 14.5034 17.1017L13.2456 13.99C13.2111 13.9065 13.1966 13.8158 13.2035 13.7254C13.2104 13.635 13.2384 13.5477 13.2853 13.4707C13.3321 13.3937 13.3963 13.3293 13.4726 13.283C13.5488 13.2367 13.6348 13.2097 13.7234 13.2044L13.7271 13.1901ZM8.26159 13.2044C8.44556 13.2073 8.61545 13.3042 8.71588 13.4615C8.81631 13.6188 8.83227 13.8164 8.76 13.9891V14.0015L7.50976 17.0883C6.31303 16.3046 5.40445 15.1392 4.92106 13.7723L8.14708 13.2131C8.18275 13.2092 8.21935 13.2092 8.25596 13.2131L8.26159 13.2044ZM10.9873 14.5473C11.0899 14.544 11.1913 14.5699 11.2803 14.6221C11.3693 14.6742 11.4424 14.7506 11.4914 14.8428H11.5036L13.0936 17.7751L12.4581 17.9669C11.2886 18.2403 10.0675 18.176 8.93082 17.7808L10.5265 14.8485C10.6231 14.6759 10.8015 14.5703 10.9958 14.5656L10.9873 14.5473Z"/>
</svg>
