<svg xmlns="http://www.w3.org/2000/svg" width="48" height="48" viewBox="0 0 48 48" fill="none">
    <path fill-rule="evenodd" clip-rule="evenodd"
          d="M18.544 31.758h2.726V16h-2.4v10.154c0 .996.034 1.703.104 2.12h-.042a12.031 12.031 0 0 0-.566-.966L11.427 16H8.524v15.758h2.41v-10.33c0-1.106-.027-1.827-.083-2.164h.063c.119.315.269.619.45.912l7.18 11.582zM3.44 31.571c.294.286.65.429 1.07.429.426 0 .785-.143 1.079-.429.3-.293.45-.64.45-1.044 0-.41-.15-.761-.45-1.055a1.47 1.47 0 0 0-1.08-.439c-.419 0-.775.146-1.069.44-.293.293-.44.644-.44 1.055 0 .402.147.75.44 1.043zm29.569.187H24.57V16h8.102v2.22h-5.607v4.461h5.167v2.21h-5.167v4.658h5.943v2.21zm7.673-13.538H45V16H33.88v2.22h4.307v13.538h2.495V18.22z"
          fill="#007FFF"/>
</svg>
