<svg xmlns="http://www.w3.org/2000/svg" width="24" height="24" viewBox="0 0 24 24" fill="none">
    <path d="M2.00133 19C2.00006 18.4477 2.44674 18 2.99902 18H16.999C17.5513 18 18.0001 18.4477 18.0013 19C18.0026 19.5523 17.5559 20 17.0036 20H3.00363C2.45135 20 2.0026 19.5523 2.00133 19Z" fill="#1B191B"/>
    <path d="M2.00164 12C2.00291 11.4477 2.45166 11 3.00394 11H11.0039C11.5562 11 12.0029 11.4477 12.0016 12C12.0004 12.5523 11.5516 13 10.9993 13H2.99933C2.44705 13 2.00036 12.5523 2.00164 12Z" fill="#1B191B"/>
    <rect width="20" height="2.00001" rx="1" transform="matrix(1 0 -0.0023056 0.999997 2.00342 4)" fill="#1B191B"/>
</svg>
