<svg width="217" height="217" viewBox="0 0 217 217" fill="none" xmlns="http://www.w3.org/2000/svg"><g opacity=".6" fill="#007FFF" stroke="#fff" stroke-width="2.137"><path opacity=".8" d="M139.076 109.321l-27.226 3.827-10.299 25.491 15.854 21.963 28.299-4.124 10.299-25.492-16.927-21.665zM85.076 87.321L57.85 91.148l-10.299 25.491 16.927 21.665 27.226-3.826 10.299-25.492-16.927-21.665zM132.076 50.321l-27.041 4.32-10.484 24.998 16.927 21.665 27.226-3.826 10.299-25.492-16.927-21.665z"/><path opacity=".8" d="M105.076 115.321l-27.226 3.827-10.299 25.491 16.927 21.665 27.288-4.588 10.237-24.73-16.927-21.665zM153.076 77.321l-27.226 3.827-10.299 25.491 16.927 21.665 27.423-4.902 10-24.5-16.825-21.58zM98.076 56.321L70.85 60.148 60.551 85.639l16.927 21.665 27.226-3.826 10.299-25.492-16.927-21.665z"/><path opacity=".8" d="M118.076 83.321L90.85 87.148l-10.299 25.491 16.927 21.665 27.009-4.958 10.516-24.36-16.927-21.665z"/></g><path opacity=".75" d="M132 51.402l-61 9.5 37 48.5 60.5-10.5-36.5-47.5z" fill="#fff"/><path opacity=".45" d="M70 59.402l-22.006 57.555 36.395 48.244 23.699-55.862-38.087-49.937z" fill="#fff"/></svg>