<svg xmlns="http://www.w3.org/2000/svg" width="48" height="48" viewBox="0 0 48 48" fill="none">
    <mask id="a" fill="#fff">
        <path fill-rule="evenodd" clip-rule="evenodd"
              d="M36.667 9.429h-7.588C28.577 6.348 25.971 4 22.833 4c-3.138 0-5.743 2.348-6.245 5.429H9a2 2 0 0 0-2 2v9.942h2.111c2.332 0 4.223 1.945 4.223 4.343 0 2.399-1.89 4.343-4.223 4.343H7V40a2 2 0 0 0 2 2h9.611v-2.171c0-2.399 1.89-4.343 4.222-4.343 2.332 0 4.222 1.944 4.222 4.343V42h9.612a2 2 0 0 0 2-2v-7.771c3.497 0 6.333-2.917 6.333-6.515 0-3.597-2.836-6.514-6.333-6.514v-7.771a2 2 0 0 0-2-2z"/>
    </mask>
    <path d="M29.08 9.429l-1.975.322.274 1.678h1.7v-2zm-12.492 0v2h1.7l.273-1.678-1.973-.322zM7 21.37H5v2h2v-2zm0 8.686v-2H5v2h2zM18.611 42v2h2v-2h-2zm8.444 0h-2v2h2v-2zm11.612-9.771v-2h-2v2h2zm0-13.029h-2v2h2v-2zm-9.588-7.771h7.588v-4h-7.588v4zM22.833 6c2.102 0 3.918 1.58 4.272 3.75l3.948-.643C30.402 5.115 27.008 2 22.833 2v4zm-4.271 3.75C18.915 7.58 20.731 6 22.832 6V2c-4.175 0-7.568 3.115-8.22 7.107l3.948.644zM9 11.43h7.588v-4H9v4zm0 0v-4a4 4 0 0 0-4 4h4zm0 9.942V11.43H5v9.942h4zm.111-2H7v4h2.111v-4zm0 0v4-4zm6.223 6.343c0-3.45-2.734-6.343-6.223-6.343v4c1.175 0 2.223.996 2.223 2.343h4zM9.11 32.057c3.49 0 6.223-2.893 6.223-6.343h-4c0 1.348-1.048 2.343-2.223 2.343v4zm0 0v-4 4zm-2.111 0h2.111v-4H7v4zM9 40v-9.943H5V40h4zm0 0H5a4 4 0 0 0 4 4v-4zm9.611 0H9v4h9.611v-4zm-2-.171V42h4v-2.171h-4zm4 0c0-1.348 1.048-2.343 2.222-2.343v-4c-3.489 0-6.222 2.893-6.222 6.343h4zm2.222-2.343c1.175 0 2.222.995 2.222 2.343h4c0-3.45-2.733-6.343-6.222-6.343v4zM29.055 42v-2.171h-4V42h4zm7.612-2h-9.612v4h9.612v-4zm0 0v4a4 4 0 0 0 4-4h-4zm0-7.771V40h4v-7.771h-4zM43 25.714c0 2.547-1.993 4.515-4.333 4.515v4c4.655 0 8.333-3.866 8.333-8.515h-4zM38.667 21.2c2.34 0 4.333 1.968 4.333 4.514h4c0-4.648-3.678-8.514-8.333-8.514v4zm-2-9.771V19.2h4v-7.771h-4zm0 0h4a4 4 0 0 0-4-4v4z"
          fill="#007FFF" mask="url(#a)"/>
</svg>
