<svg width="24" height="17" viewBox="0 0 24 17" fill="none" xmlns="http://www.w3.org/2000/svg">
<path d="M13.5825 7.83688H16.0685V5.5461H13.5825V7.83688ZM10.623 7.83688H13.109V5.5461H10.623V7.83688ZM7.72264 7.83688H10.2086V5.5461H7.72264V7.83688ZM4.82231 7.83688H7.24912V5.5461H4.82231V7.83688ZM1.86279 7.83688H4.34879V5.5461H1.86279V7.83688ZM4.82231 5.06383H7.24912V2.77305H4.82231V5.06383ZM7.72264 5.06383H10.2086V2.77305H7.72264V5.06383ZM10.623 5.06383H13.109V2.77305H10.623V5.06383ZM10.623 2.29078H13.109V0H10.623V2.29078ZM24 6.81206C24 6.81206 22.9346 5.78723 20.7445 6.14894C20.5078 4.40071 18.6729 3.37589 18.6729 3.37589C18.6729 3.37589 16.9563 5.48582 18.1993 7.83688C17.8442 8.01773 17.2523 8.25887 16.3644 8.25887H0.0870828C-0.208869 9.40426 -0.208869 17 7.9594 17C13.8193 17 18.1993 14.227 20.271 9.16312C23.3489 9.40426 24 6.81206 24 6.81206Z"/>
</svg>
