<svg width="131" height="48" viewBox="0 0 131 48" fill="none" xmlns="http://www.w3.org/2000/svg">
    <path d="M80.195 25.27c0 2.828-.785 4.992-2.355 6.492C76.27 33.254 74.008 34 71.055 34h-4.793V16.867h5.297c2.726 0 4.847.735 6.363 2.203 1.516 1.47 2.273 3.535 2.273 6.2zm-2.953.093c0-4.101-1.918-6.152-5.754-6.152h-2.425v12.434h1.992c4.125 0 6.187-2.094 6.187-6.282zM90.168 20.805c.555 0 1.012.039 1.371.117l-.27 2.566a5.201 5.201 0 0 0-1.218-.14c-1.102 0-1.996.359-2.684 1.078-.68.719-1.02 1.652-1.02 2.8V34h-2.753V21.04h2.156l.363 2.284h.14c.43-.773.99-1.387 1.677-1.84a4.024 4.024 0 0 1 2.238-.68zM96.707 34h-2.754V21.04h2.754V34zm-2.918-16.395c0-.492.133-.87.398-1.136.274-.266.66-.399 1.16-.399.485 0 .86.133 1.126.399.273.265.41.644.41 1.136 0 .47-.137.84-.41 1.114-.266.265-.641.398-1.125.398-.5 0-.887-.133-1.16-.398-.266-.274-.399-.645-.399-1.114zM103.41 34h-2.754V15.766h2.754V34zM110.113 34h-2.754V15.766h2.754V34zM125.371 30.262h-2.309V34h-2.683v-3.738h-7.828V28.14l7.828-11.32h2.683v11.156h2.309v2.285zm-4.992-2.285v-4.301c0-1.531.039-2.785.117-3.762h-.094c-.218.516-.562 1.14-1.031 1.875l-4.254 6.188h5.262z" fill="#1B191B" />
    <path d="M125.898 38.781c-.765 0-1.406-.097-1.921-.293v-2.355c.656.164 1.226.246 1.711.246 1.531 0 2.296-.969 2.296-2.906V16.867h2.813V33.38c0 1.75-.418 3.086-1.254 4.008-.828.93-2.043 1.394-3.645 1.394z" fill="#1B191B" />
    <path fill-rule="evenodd" clip-rule="evenodd" d="M41.897 17.235l.034.033 5.6 5.6a1.6 1.6 0 0 1 .034 2.229l-.034.034-5.6 5.6-.034.034a1.6 1.6 0 0 1-2.262-2.262l.034-.035L44.137 24 39.67 19.53a1.6 1.6 0 0 1 2.228-2.296zM6.103 17.235a1.6 1.6 0 0 1 2.262 2.262l-.034.034L3.863 24l4.468 4.468a1.6 1.6 0 0 1-2.228 2.297l-.034-.034-5.6-5.6a1.6 1.6 0 0 1 0-2.263l5.6-5.6.034-.033z" fill="#007FFF" />
    <path fill-rule="evenodd" clip-rule="evenodd" d="M17.269 28.468a1.6 1.6 0 0 1 2.228-.033l.034.034 11.2 11.2a1.6 1.6 0 0 1 .034 2.228l-.034.034-5.6 5.6a1.595 1.595 0 0 1-1.064.468h-.089a1.595 1.595 0 0 1-1.069-.429l-.04-.039-5.6-5.6-.034-.034a1.6 1.6 0 0 1 2.262-2.262l.034.034L24 44.136l3.337-3.337L17.27 30.73l-.034-.034a1.6 1.6 0 0 1 .034-2.229zm0-11.2a1.6 1.6 0 0 1 2.228-.033l.034.034 11.2 11.2.034.034a1.6 1.6 0 0 1-2.262 2.262l-.034-.034-11.2-11.2-.034-.034a1.6 1.6 0 0 1 .034-2.229zM24.022 0c.385.005.768.148 1.069.43l.04.038 5.6 5.6.034.035a1.6 1.6 0 0 1-2.262 2.262l-.034-.034L24 3.863 20.663 7.2 30.73 17.269l.034.034a1.6 1.6 0 0 1-2.262 2.262l-.034-.034-11.2-11.2-.034-.034a1.6 1.6 0 0 1 0-2.194l.034-.035 5.6-5.6A1.595 1.595 0 0 1 23.978 0h.044z" fill="#1B191B" />
</svg>