<svg width="58" height="58" viewBox="0 0 58 58" fill="none" xmlns="http://www.w3.org/2000/svg"><circle opacity=".68" cx="29" cy="29" r="29" fill="#fff"/><circle opacity=".68" cx="29" cy="29" r="24.58" fill="#fff" stroke="#E3E6E8" stroke-width=".84"/><path fill-rule="evenodd" clip-rule="evenodd" d="M41.839 24.302l.023.023 3.819 3.89c.418.425.425 1.111.022 1.547l-.023.024-3.818 3.889-.023.023a1.077 1.077 0 0 1-1.52-.023 1.126 1.126 0 0 1-.022-1.548l.023-.024L43.365 29l-3.047-3.103a1.126 1.126 0 0 1 0-1.572 1.077 1.077 0 0 1 1.52-.023zM16.161 24.302a1.077 1.077 0 0 1 1.52.023c.418.427.425 1.112.022 1.548l-.023.024L14.634 29l3.046 3.103a1.126 1.126 0 0 1 0 1.572 1.077 1.077 0 0 1-1.519.023l-.023-.023-3.819-3.89a1.126 1.126 0 0 1 0-1.57l3.819-3.89.023-.023z" fill="#007FFF"/><path fill-rule="evenodd" clip-rule="evenodd" d="M24.325 32.165a1.096 1.096 0 0 1 1.548-.023l.024.023 7.778 7.934a1.15 1.15 0 0 1 .023 1.578l-.023.025-3.89 3.966c-.204.21-.47.32-.738.331l-.032.001h-.03a1.096 1.096 0 0 1-.742-.304l-.029-.028-3.889-3.966-.023-.025a1.15 1.15 0 0 1 .023-1.578 1.096 1.096 0 0 1 1.548-.024l.024.024L29 43.264l2.317-2.364-6.992-7.132-.023-.024a1.15 1.15 0 0 1 .023-1.579zm0-7.933a1.096 1.096 0 0 1 1.548-.024l.024.024 7.778 7.933.023.025a1.15 1.15 0 0 1-.023 1.578 1.096 1.096 0 0 1-1.548.024l-.024-.024-7.778-7.933-.023-.025a1.15 1.15 0 0 1 .023-1.578zM29.015 12c.267.004.534.105.742.304l.029.028 3.889 3.966.023.025a1.15 1.15 0 0 1-.023 1.578 1.096 1.096 0 0 1-1.548.024l-.024-.024L29 14.736 26.683 17.1l6.992 7.132.023.024a1.15 1.15 0 0 1-.023 1.579 1.096 1.096 0 0 1-1.548.023l-.024-.023-7.778-7.934-.023-.024a1.15 1.15 0 0 1 0-1.554l.023-.024 3.89-3.967c.212-.217.49-.328.77-.332h.03z" fill="#1B191B"/></svg>