<svg xmlns="http://www.w3.org/2000/svg" width="48" height="48" viewBox="0 0 48 48" fill="none">
    <path fill-rule="evenodd" clip-rule="evenodd"
          d="M28.771 0s5.047 4.98-4.786 12.638c-6.098 4.75-3.84 7.922-1.673 10.966.635.893 1.262 1.774 1.67 2.682-4.603-4.097-7.98-7.703-5.715-11.06 1.107-1.639 2.865-2.997 4.644-4.371C26.48 8.099 30.13 5.279 28.771 0zM26.17 22.91c2.343 2.661-.616 5.055-.616 5.055s5.95-3.029 3.217-6.823l-.324-.446c-2.372-3.25-3.73-5.11 6.409-10.91 0 0-16.627 4.097-8.686 13.124zm-8.697 10.743c-3.18-.324-1.098-1.844-1.098-1.844-8.226 2.693 4.578 5.748 16.073 2.432-1.221-.425-1.999-1.202-1.999-1.202-5.618 1.067-8.865 1.033-12.976.614zm1.385 4.827c-3.177-.36-1.32-1.425-1.32-1.425-7.469 2.058 4.542 6.311 14.05 2.291a17.59 17.59 0 0 1-2.673-1.287c-4.241.792-6.208.854-10.057.42zm18.373 4.435c2.887-.864 1.513-1.98 1.513-1.98 5.029 2.237-10.924 6.735-30.31 3.634-7.108-1.137 3.422-5.106 5.349-3.767 0 0-.61-.042-1.675.186-1.023.216-4.272 1.249-2.54 1.992 4.821 2.07 22.175 1.575 27.663-.065zM18.43 26.374s-8.827 2.068-3.126 2.819c2.407.318 7.206.246 11.676-.123 3.653-.305 7.321-.95 7.321-.95s-1.288.543-2.22 1.171c-8.964 2.326-26.28 1.244-21.295-1.135 4.216-2.01 7.644-1.782 7.644-1.782zm17.794.176c2.94-.605 7.154 3.884-1.959 8.555a.786.786 0 0 1-.183.236c12.17-3.156 7.696-11.125 1.878-9.107a1.655 1.655 0 0 0-.779.592s.322-.128 1.043-.276zm5.598 16.824c-.319 4.083-13.75 4.942-22.497 4.39-5.706-.362-6.85-1.264-6.866-1.277 5.46.888 14.669 1.05 22.134-.336 6.617-1.23 7.229-2.777 7.229-2.777z"
          fill="#007FFF"/>
</svg>
