<svg xmlns="http://www.w3.org/2000/svg" width="16" height="16" viewBox="0 0 16 16" fill="none">
    <path fill-rule="evenodd" clip-rule="evenodd" d="M6.5 0C10.0899 0 13 2.91015 13 6.5C13 8.11299 12.4125 9.58875 11.4398 10.725L15.852 15.1374C16.0493 15.3347 16.0493 15.6547 15.852 15.852C15.6547 16.0493 15.3347 16.0493 15.1374 15.852L10.725 11.4398C9.58875 12.4125 8.11299 13 6.5 13C2.91015 13 0 10.0899 0 6.5C0 2.91015 2.91015 0 6.5 0ZM6.5 1C3.46243 1 1 3.46243 1 6.5C1 9.53757 3.46243 12 6.5 12C9.53757 12 12 9.53757 12 6.5C12 3.46243 9.53757 1 6.5 1Z" fill="#687481"/>
</svg>
